<?xml version="1.0" encoding="UTF-8" standalone="no"?>
<!-- Created with Inkscape (http://www.inkscape.org/) -->

<svg
   xmlns:dc="http://purl.org/dc/elements/1.1/"
   xmlns:cc="http://creativecommons.org/ns#"
   xmlns:rdf="http://www.w3.org/1999/02/22-rdf-syntax-ns#"
   xmlns:svg="http://www.w3.org/2000/svg"
   xmlns="http://www.w3.org/2000/svg"
   xmlns:sodipodi="http://sodipodi.sourceforge.net/DTD/sodipodi-0.dtd"
   xmlns:inkscape="http://www.inkscape.org/namespaces/inkscape"
   width="48px"
   height="48px"
   id="svg4399"
   version="1.1"
   inkscape:version="0.48.3.1 r9886"
   sodipodi:docname="New document 12">
  <defs
     id="defs4401" />
  <sodipodi:namedview
     id="base"
     pagecolor="#ffffff"
     bordercolor="#666666"
     borderopacity="1.0"
     inkscape:pageopacity="0.0"
     inkscape:pageshadow="2"
     inkscape:zoom="7"
     inkscape:cx="36.074556"
     inkscape:cy="24"
     inkscape:current-layer="layer1"
     showgrid="true"
     inkscape:grid-bbox="true"
     inkscape:document-units="px"
     inkscape:window-width="753"
     inkscape:window-height="705"
     inkscape:window-x="1024"
     inkscape:window-y="122"
     inkscape:window-maximized="0" />
  <metadata
     id="metadata4404">
    <rdf:RDF>
      <cc:Work
         rdf:about="">
        <dc:format>image/svg+xml</dc:format>
        <dc:type
           rdf:resource="http://purl.org/dc/dcmitype/StillImage" />
        <dc:title></dc:title>
      </cc:Work>
    </rdf:RDF>
  </metadata>
  <g
     id="layer1"
     inkscape:label="Layer 1"
     inkscape:groupmode="layer">
    <path
       sodipodi:type="arc"
       style="fill:#000000;fill-opacity:1;stroke:none"
       id="path4407"
       sodipodi:cx="24.142857"
       sodipodi:cy="23.428572"
       sodipodi:rx="4.4285712"
       sodipodi:ry="4.4285712"
       d="m 28.571428,23.428572 a 4.4285712,4.4285712 0 1 1 -8.857143,0 4.4285712,4.4285712 0 1 1 8.857143,0 z"
       transform="translate(0,0.57142857)" />
    <path
       style="fill:#000000;fill-opacity:1;stroke:none"
       d="m 26.142857,18.428572 c -1.077253,-0.398937 -2.229049,-0.723331 -4.428571,0 C 20.335605,8.3253837 12.117904,10.230195 8.5714289,7.7142858 10.640011,4.4719548 17.603823,-0.26960829 26.428571,2.1428572 28.840333,7.4239581 30.141362,12.770397 26.142857,18.428572 z"
       id="path4409"
       inkscape:connector-curvature="0"
       sodipodi:nodetypes="ccccc" />
    <path
       style="fill:#000000;fill-opacity:1;stroke:none"
       d="m 18.352608,24.906936 c 0.193137,1.132396 0.488101,2.292079 2.214285,3.835255 -8.060277,6.245567 -2.301812,12.4099 -2.707416,16.739191 C 14.017245,45.311103 6.4290254,41.651046 4.1059084,32.802358 7.4735954,28.073161 11.453232,24.273217 18.352608,24.906936 z"
       id="path4409-7"
       inkscape:connector-curvature="0"
       sodipodi:nodetypes="ccccc" />
    <path
       style="fill:#000000;fill-opacity:1;stroke:none"
       d="m 27.39861,28.630391 c 0.884115,-0.73346 1.740948,-1.568748 2.214286,-3.835255 9.438957,3.857622 11.898194,-4.211522 15.850272,-6.024904 1.77365,3.41261 2.398057,11.81423 -4.103572,18.250452 C 35.580148,36.46878 30.299481,34.922285 27.39861,28.630391 z"
       id="path4409-7-3"
       inkscape:connector-curvature="0"
       sodipodi:nodetypes="ccccc" />
  </g>
</svg>
